HIERARCHY
ROOT Hips
{
	OFFSET 0.00000 0.00000 0.00000
	CHANNELS 6 Xposition Yposition Zposition Zrotation Yrotation Xrotation 
	JOINT LHipJoint
	{
		OFFSET 0 0 0
		CHANNELS 3 Zrotation Yrotation Xrotation
		JOINT LeftHip
		{
			OFFSET 1.66553 -1.82942 0.76350
			CHANNELS 3 Zrotation Yrotation Xrotation
			JOINT LeftKnee
			{
				OFFSET 2.41740 -6.64177 0.00000
				CHANNELS 3 Zrotation Yrotation Xrotation
				JOINT LeftAnkle
				{
					OFFSET 2.71614 -7.46254 0.00000
					CHANNELS 3 Zrotation Yrotation Xrotation
					JOINT LeftToe
					{
						OFFSET 0.08005 -0.21993 1.82495
						CHANNELS 3 Zrotation Yrotation Xrotation
						End Site
						{
							OFFSET 0.00000 -0.00000 0.93441
						}
					}
				}
			}
		}
	}
	JOINT RHipJoint
	{
		OFFSET 0 0 0
		CHANNELS 3 Zrotation Yrotation Xrotation
		JOINT RightHip
		{
			OFFSET -1.63725 -1.82942 0.76350
			CHANNELS 3 Zrotation Yrotation Xrotation
			JOINT RightKnee
			{
				OFFSET -2.40538 -6.60872 0.00000
				CHANNELS 3 Zrotation Yrotation Xrotation
				JOINT RightAnkle
				{
					OFFSET -2.73312 -7.50919 0.00000
					CHANNELS 3 Zrotation Yrotation Xrotation
					JOINT RightToe
					{
						OFFSET -0.15567 -0.42769 1.93504
						CHANNELS 3 Zrotation Yrotation Xrotation
						End Site
						{
							OFFSET -0.00000 -0.00000 1.00100
						}
					}
				}
			}
		}
	}
	JOINT lowerback
	{
		OFFSET 0 0 0
		CHANNELS 3 Zrotation Yrotation Xrotation
		JOINT Chest
		{
			OFFSET 0.00326 2.30118 -0.13017
			CHANNELS 3 Zrotation Yrotation Xrotation
			JOINT Chest2
			{
				OFFSET 0.02887 2.30677 0.00834
				CHANNELS 3 Zrotation Yrotation Xrotation
				JOINT lowerneck
				{
					OFFSET 0 0 0
					CHANNELS 3 Zrotation Yrotation Xrotation
					JOINT Neck
					{
						OFFSET 0.12946 1.68326 0.00713
						CHANNELS 3 Zrotation Yrotation Xrotation
						JOINT Head
						{
							OFFSET -0.24364 1.67243 -0.16079
							CHANNELS 3 Zrotation Yrotation Xrotation
							End Site
							{
								OFFSET -0.09229 1.70819 -0.06383
							}
						}
					}
				}
				JOINT LeftCollar
				{
					OFFSET 0 0 0
					CHANNELS 3 Zrotation Yrotation Xrotation
					JOINT LeftShoulder
					{
						OFFSET 3.28104 0.69567 -0.00556
CHANNELS 3 Zrotation Xrotation Yrotation
						JOINT LeftElbow
						{
OFFSET 0 -5.707060 -0.000000
CHANNELS 3 Zrotation Xrotation Yrotation
							JOINT LeftWrist
							{
OFFSET 0 -3.332430 0.000000
CHANNELS 3 Zrotation Xrotation Yrotation
								JOINT lhand
								{
									OFFSET 0 0 0
CHANNELS 3 Zrotation Xrotation Yrotation
									JOINT LFingers
									{
OFFSET 0 -0.792690 0.000000
CHANNELS 3 Zrotation Xrotation Yrotation
										End Site
										{
OFFSET 0 -0.639090 0.000000
										}
									}
								}
								JOINT LThumb
								{
OFFSET 0 0.000000 0.000000
CHANNELS 3 Zrotation Xrotation Yrotation
									End Site
									{
OFFSET 0 -0.648840 0.648840
									}
								}
							}
						}
					}
				}
				JOINT RightCollar
				{
					OFFSET 0 0 0
					CHANNELS 3 Zrotation Yrotation Xrotation
					JOINT RightShoulder
					{
						OFFSET -3.40955 0.64424 0.14010
CHANNELS 3 Zrotation Xrotation Yrotation
						JOINT RightElbow
						{
OFFSET 0 -5.881760 -0.000000
CHANNELS 3 Zrotation Xrotation Yrotation
							JOINT RightWrist
							{
OFFSET 0 -3.281560 0.000000
CHANNELS 3 Zrotation Xrotation Yrotation
								JOINT rhand
								{
									OFFSET 0 0 0
CHANNELS 3 Zrotation Xrotation Yrotation
									JOINT RFingers
									{
OFFSET 0 -0.863130 0.000000
CHANNELS 3 Zrotation Xrotation Yrotation
										End Site
										{
OFFSET 0 -0.695870 0.000000
										}
									}
								}
								JOINT RThumb
								{
OFFSET 0 0.000000 0.000000
CHANNELS 3 Zrotation Xrotation Yrotation
									End Site
									{
OFFSET 0 -0.706500 0.706500
									}
								}
							}
						}
					}
				}
			}
		}
	}
}
MOTION
Frames: 9
Frame Time: 0.008333333333333333
11.319460 15.717485 -15.058885 3.509470 -29.974582 -1.565823 0.000000 0.000000 0.000000 8.453830 40.158775 -60.733618 17.124795 19.800402 81.566557 0.885184 -0.875883 18.110482 0.110066 -2.090673 -5.757797 0.000000 0.000000 0.000000 -1.568488 -30.650256 -37.406750 -10.802055 -17.836722 62.136899 -1.650996 3.131317 -23.492637 -0.683470 -5.284899 14.723240 -1.025390 -0.576756 23.778140 -1.806059 -1.410687 -3.889991 -0.988615 -0.647551 -18.041180 16.574959 9.383811 8.869113 -24.578507 9.651675 -33.403625 -13.099180 5.372707 -9.336849 0.000000 0.000000 0.000000 78.674132 12.817824 40.071325 133.906451 -51.290503 96.910277 37.202927 -28.042889 -24.420892 0.000000 0.000000 0.000000 -7.125000 0.000000 0.000000 9.198424 59.428978 -3.255239 0.000000 0.000000 0.000000 -76.320850 -4.336594 -36.763186 -138.678375 -48.833366 -100.571539 -38.180170 -23.288998 -0.984069 0.000000 0.000000 0.000000 7.125000 0.000000 0.000000 -9.012054 28.679729 -3.622259
11.370510 15.471616 -15.116575 2.517175 -29.872058 -0.478744 0.000000 0.000000 0.000000 9.532222 38.062265 -57.783786 15.600889 19.529065 77.039978 1.204932 -1.983308 21.537634 0.026171 0.791561 2.176907 0.000000 0.000000 0.000000 -0.998192 -29.345360 -39.439277 -11.803175 -18.306098 65.363496 -1.872394 3.141116 -25.077578 -0.356132 -3.826258 10.589279 -1.844341 -0.427586 23.876761 -1.462221 -1.413444 -4.391190 -0.055710 -0.517149 -18.099785 16.042338 8.818085 8.591555 -24.026347 8.580014 -35.255333 -13.091498 4.756061 -10.340126 0.000000 0.000000 0.000000 77.901923 12.679813 41.460441 140.738751 -47.622875 102.107458 44.605343 -27.400305 -17.951337 0.000000 0.000000 0.000000 -7.125000 0.000000 0.000000 17.710430 53.560747 -3.809090 0.000000 0.000000 0.000000 -71.724940 -1.296121 -34.735406 -140.662379 -47.672492 -102.051997 -43.533075 -23.811205 -2.321033 0.000000 0.000000 0.000000 7.125000 0.000000 0.000000 -12.860051 26.722436 -5.842541
11.518265 15.280047 -15.064942 0.267604 -29.110159 0.632940 0.000000 0.000000 0.000000 9.909458 34.671391 -51.847130 14.271436 19.194068 73.031537 1.594410 0.311579 23.795773 0.683354 5.270788 14.685796 0.000000 0.000000 0.000000 0.162122 -29.485663 -39.885721 -12.243261 -18.491569 66.757740 -1.914914 3.350904 -25.330706 -0.403974 -4.077761 11.295913 -2.280240 -0.547633 23.745038 -0.414319 -1.506531 -3.870489 1.398005 -0.443802 -18.027211 16.095658 8.157808 7.942801 -23.682924 7.378838 -37.069288 -13.240829 4.005302 -11.270096 0.000000 0.000000 0.000000 79.123588 10.682357 40.817277 145.967790 -44.107210 105.864133 50.030499 -32.476002 -10.807738 0.000000 0.000000 0.000000 -7.125000 0.000000 0.000000 21.611719 45.353420 -0.203103 0.000000 0.000000 0.000000 -68.722571 0.966947 -33.610709 -140.252874 -47.919200 -101.748575 -41.860395 -23.394620 -2.647824 0.000000 0.000000 0.000000 7.125000 0.000000 0.000000 -11.560819 26.388558 -5.320296
11.786866 15.158900 -14.937224 -3.802187 -29.813797 2.251263 0.000000 0.000000 0.000000 10.228924 32.865915 -44.970581 12.553140 18.614384 67.731182 -0.417527 -11.622432 2.187886 0.618211 -4.954174 -13.795659 0.000000 0.000000 0.000000 2.409595 -28.876091 -40.103922 -12.430617 -18.566831 67.347402 -1.488911 3.525769 -22.187744 -0.494851 -4.510241 12.516804 -2.248732 -0.624351 23.582699 1.483400 -1.265199 -3.565582 3.524468 -0.206309 -17.506532 16.962642 7.705666 8.323143 -23.443984 6.836423 -38.760232 -13.664738 3.483233 -12.189895 0.000000 0.000000 0.000000 82.361754 7.831046 39.234245 148.742044 -41.947388 107.758046 49.323189 -34.027743 -5.714807 0.000000 0.000000 0.000000 -7.125000 0.000000 0.000000 19.311374 38.009959 3.479914 0.000000 0.000000 0.000000 -69.050994 0.651392 -32.086384 -137.618093 -49.418689 -99.769624 -36.354735 -26.495010 -1.128778 0.000000 0.000000 0.000000 7.125000 0.000000 0.000000 -7.589100 28.544611 -3.066579
12.160605 15.216176 -14.805264 -7.349429 -31.115555 4.293150 0.000000 0.000000 0.000000 9.782829 30.598832 -43.011657 11.674293 18.249508 64.952532 0.641735 -2.119749 -14.617946 5.496858 -13.906913 -42.897156 0.000000 0.000000 0.000000 1.985344 -27.619598 -42.731086 -13.427389 -18.930688 70.447541 -0.166149 4.385230 -7.164054 -0.601274 -4.828694 13.447178 -3.219009 -0.834635 23.647521 4.411172 -1.370089 -3.696984 7.234303 -0.016881 -17.011369 16.786599 8.020352 9.252225 -23.129474 7.253071 -41.282917 -14.077141 3.453935 -13.456800 0.000000 0.000000 0.000000 85.014971 6.545879 36.718711 146.658110 -43.586283 106.341042 51.263132 -28.464951 -4.387780 0.000000 0.000000 0.000000 -7.125000 0.000000 0.000000 20.549477 36.246908 4.671212 0.000000 0.000000 0.000000 -74.326436 -2.939226 -32.350381 -130.296961 -52.866131 -94.060464 -22.163272 -31.742736 -3.418494 0.000000 0.000000 0.000000 7.125000 0.000000 0.000000 3.377977 26.290384 1.548400
12.562829 15.440957 -14.707513 -9.351080 -33.818647 4.891512 0.000000 0.000000 0.000000 11.062902 28.273563 -40.375434 11.839168 18.321833 65.478227 0.707076 -0.920922 -15.601366 3.606609 -11.592240 -34.336945 0.000000 0.000000 0.000000 -2.099082 -25.137712 -45.917328 -14.081453 -19.138517 72.453149 -0.691217 -0.367776 15.483135 -3.569400 -11.554452 34.185483 -3.350248 -0.903579 24.644891 6.050152 -1.282891 -2.907772 9.134452 0.087292 -16.626601 16.737627 8.843476 8.668728 -23.353026 8.110857 -42.619233 -14.333165 3.730296 -13.654114 0.000000 0.000000 0.000000 88.333199 6.689143 35.309743 134.921281 -50.787560 97.694572 52.540433 -27.809435 -4.485200 0.000000 0.000000 0.000000 -7.125000 0.000000 0.000000 21.658500 36.502386 4.807283 0.000000 0.000000 0.000000 -81.884156 -8.218099 -34.949321 -115.940751 -57.286314 -82.259173 3.161253 -30.931530 -7.501729 0.000000 0.000000 0.000000 7.125000 0.000000 0.000000 21.471962 22.529980 12.522057
12.863539 15.668282 -14.580339 -9.398189 -36.176966 3.849438 0.000000 0.000000 0.000000 10.057301 28.740852 -37.421879 11.406558 18.128363 64.094890 0.650072 0.945754 -15.600444 2.785766 -10.338677 -30.081885 0.000000 0.000000 0.000000 -5.523882 -27.458910 -50.156227 -14.892778 -19.362594 74.913326 -1.464978 -10.887308 21.851115 -6.607999 -14.992606 47.375544 -1.570308 -1.456233 25.865158 6.475655 -1.402581 -2.789860 8.693818 -0.096224 -17.141731 14.986747 9.670840 8.761274 -24.186838 8.587957 -42.318414 -14.304468 4.331606 -13.408849 0.000000 0.000000 0.000000 89.175943 6.996762 33.665717 109.901023 -58.439696 77.143563 45.187317 -24.913819 -9.427328 0.000000 0.000000 0.000000 -7.125000 0.000000 0.000000 16.521204 42.616490 1.008889 0.000000 0.000000 0.000000 -90.841907 -12.676609 -36.138474 -99.665163 -59.641883 -68.360113 34.089939 -22.265698 -15.549608 0.000000 0.000000 0.000000 7.125000 0.000000 0.000000 36.825864 11.745390 37.799309
12.982166 15.953792 -14.502636 -7.173062 -37.189978 1.837601 0.000000 0.000000 0.000000 8.530084 29.960050 -36.583151 11.336364 18.095775 63.869176 0.159483 0.578705 -7.757767 4.513486 -12.791760 -38.629646 0.000000 0.000000 0.000000 -7.159227 -33.199215 -54.533255 -16.524881 -19.707741 79.791716 -0.224376 -12.329716 11.408398 -6.262606 -14.677599 46.025905 2.065747 -2.404641 26.101724 4.355315 -1.816797 -2.899104 4.413712 -0.741621 -17.413372 16.226067 9.835530 8.143259 -25.753573 8.607865 -41.266100 -14.932134 4.442403 -12.498225 0.000000 0.000000 0.000000 90.541545 6.549404 32.956209 86.000897 -59.927770 56.537820 32.299454 -24.185120 -22.625802 0.000000 0.000000 0.000000 -7.125000 0.000000 0.000000 3.582145 56.163915 -0.900289 0.000000 0.000000 0.000000 -96.245690 -14.405204 -36.472874 -88.939511 -59.994947 -59.081622 47.451451 -3.492397 -21.177882 0.000000 0.000000 0.000000 7.125000 0.000000 0.000000 39.911093 -0.513437 57.191993
12.948158 16.304860 -14.553959 -3.050599 -37.931252 -0.564547 0.000000 0.000000 0.000000 6.603452 32.118651 -39.780306 12.009138 18.394377 66.017628 0.191005 -2.076114 9.118648 2.724017 -10.231315 -29.731867 0.000000 0.000000 0.000000 -9.005813 -33.900144 -53.123726 -16.476209 -19.699524 79.647321 -0.525263 -12.914814 14.737500 -6.938808 -15.280066 48.642393 3.447316 -2.408314 25.924475 1.770744 -1.785338 -3.403347 0.768658 -1.007225 -18.025466 16.544601 10.093885 7.511092 -26.316447 9.026498 -39.390298 -14.733190 4.817433 -11.325218 0.000000 0.000000 0.000000 90.662924 5.261592 32.850915 74.107270 -59.022318 46.281821 25.342258 -20.680644 -38.172682 0.000000 0.000000 0.000000 -7.125000 0.000000 0.000000 -14.307022 70.523172 8.804293 0.000000 0.000000 0.000000 -97.313690 -13.711886 -35.996599 -89.468784 -59.998378 -59.539920 38.325841 -3.407035 -19.252884 0.000000 0.000000 0.000000 7.125000 0.000000 0.000000 37.547055 6.789709 44.303916
